<?xml version="1.0" encoding="UTF-8" standalone="no"?>
<!-- Created with Inkscape (http://www.inkscape.org/) -->
<svg viewBox="0 0 67.733328 67.733329" version="1.1" id="svg2" width="256" height="256" xmlns="http://www.w3.org/2000/svg" xmlns:svg="http://www.w3.org/2000/svg">
	<defs id="defs2" />
	<g id="svg4" transform="translate(-697.38008,-122.73721)">
		<g id="g4" transform="translate(-163.41527,-36.214527)">
			<g id="svg1" transform="translate(-0.144842)">
				<g id="layer1" style="display:inline" transform="translate(860.94019,154.18924)">
					<path style="fill:#ffde21;fill-opacity:1;stroke-width:0.264583" d="M 17.065625,4.7624994 0,33.866666 17.065625,62.970833 H 50.667708 L 67.733332,33.866666 50.667708,4.7624994 Z" id="path8" />
				</g>
				<path style="display:inline;fill:#292c29;fill-opacity:1;stroke:none;stroke-width:3.175;stroke-linejoin:bevel" d="m 905.039,175.926 -0.602,-2.246 h 3.177 v -4.323 h -4.371 l -0.602,-2.248 h -15.668 l -0.603,2.248 h -4.371 v 4.323 h 3.178 l -0.602,2.246 z" id="path2" />
				<path style="display:inline;fill:#292c29;fill-opacity:1;stroke:none;stroke-width:3.175;stroke-linejoin:bevel" d="m 886.488,200.572 c -2.809,-8.766 -3.777,-16.286 -2.362,-21.447 h 21.361 c 1.415,5.161 0.448,12.681 -2.361,21.447 z" id="path3" />
				<path style="display:inline;fill:#292c29;fill-opacity:1;stroke:none;stroke-width:3.175;stroke-linejoin:bevel" d="m 901.534,203.253 h -6.727 -6.727 c 0.261,2.954 3.329,7.08 6.727,7.08 3.398,0 6.466,-4.126 6.727,-7.08 z" id="path5" />
			</g>
			<path d="m 904.349,184.898 c 0.255,0.053 0.509,0.108 0.77,0.164 0.192,0.044 0.385,0.086 0.584,0.133 0.094,-0.185 0.187,-0.37 0.285,-0.561 3.196,0 6.39,0 9.682,0 0,5.363 0,10.727 0,16.252 -6.138,0.056 -6.138,0.056 -8.752,0.069 -1.784,0.008 -3.568,0.018 -5.353,0.037 -1.438,0.015 -2.877,0.024 -4.316,0.027 -0.55,0.003 -1.098,0.008 -1.647,0.015 -0.768,0.01 -1.536,0.011 -2.306,0.011 -0.227,0.005 -0.455,0.01 -0.689,0.015 -1.107,-0.01 -1.601,-0.068 -2.416,-0.831 -0.849,-1.444 -0.859,-2.759 -0.721,-4.387 0.504,-1.522 1.515,-2.487 2.847,-3.362 0.836,-0.246 0.836,-0.246 1.425,-0.281 0.052,-0.242 0.104,-0.485 0.159,-0.735 0.535,-1.235 1.243,-1.93 2.403,-2.627 0.698,-0.203 1.261,-0.251 1.994,-0.279 0.07,-0.203 0.141,-0.405 0.213,-0.614 0.717,-1.588 1.58,-2.364 3.204,-3.029 0.969,-0.327 1.642,-0.236 2.634,-0.017 z" style="fill:#ffde21;stroke-width:1" id="path1" />
			<path d="m 905.533,186.827 c 0.779,0.478 1.216,0.774 1.628,1.569 -0.068,0.919 -0.166,1.251 -0.849,1.909 0.28,-0.089 2.618,-0.527 3.82,0.042 0.827,0.703 1.429,1.438 1.842,2.414 -0.654,0.36 -1.308,0.72 -1.982,1.091 0.141,-0.045 2.928,-0.468 4.177,0.052 1.662,1.29 1.662,1.29 1.888,2.495 0.068,1.195 0.034,2.087 -0.756,3.046 -1.279,1.12 -2.075,1.296 -3.805,1.307 -0.189,0.002 -16.353,0.055 -16.703,0.056 -1.356,-0.195 -2.229,-0.81 -3.158,-1.758 -0.617,-1.052 -0.562,-2.125 -0.329,-3.288 0.644,-1.085 1.312,-1.785 2.548,-2.183 2.327,-0.071 2.327,-0.071 3.398,0.273 -0.654,-0.36 -1.309,-0.72 -1.982,-1.091 0.586,-1.378 1.151,-2.067 2.548,-2.728 1.15,-0.152 2.292,-0.083 3.398,0.272 -0.45,-0.232 -0.977,-0.774 -1.056,-1.205 0.075,-1.06 0.074,-1.127 0.878,-1.881 1.474,-0.912 2.862,-0.998 4.495,-0.392 z" style="fill:#292c29;stroke-width:1" id="path4" />
		</g>
	</g>
</svg>
